<svg width="41" height="40" viewBox="0 0 41 40" fill="none" xmlns="http://www.w3.org/2000/svg">
<path d="M17.1727 25.9528C17.5288 26.2756 17.9918 26.4534 18.4712 26.4514H18.5785C18.8323 26.4378 19.0809 26.3736 19.3098 26.2625C19.5387 26.1514 19.7434 25.9955 19.9118 25.8041L29.5322 14.8374L26.6307 12.2481L18.2944 21.7597L13.3262 17.246L10.761 20.121L17.1727 25.9528V25.9528Z" fill="#FBCC01"/>
<path d="M2.42466 21.9139C3.48762 21.9139 4.34932 21.0564 4.34932 19.9985C4.34932 18.9407 3.48762 18.0831 2.42466 18.0831C1.3617 18.0831 0.5 18.9407 0.5 19.9985C0.5 21.0564 1.3617 21.9139 2.42466 21.9139Z" fill="#FBCC01"/>
<path d="M4.98991 30.9473C6.05287 30.9473 6.91457 30.0898 6.91457 29.0319C6.91457 27.9741 6.05287 27.1165 4.98991 27.1165C3.92695 27.1165 3.06525 27.9741 3.06525 29.0319C3.06525 30.0898 3.92695 30.9473 4.98991 30.9473Z" fill="#FBCC01"/>
<path d="M4.98991 12.8835C6.05287 12.8835 6.91457 12.0259 6.91457 10.9681C6.91457 9.91023 6.05287 9.05267 4.98991 9.05267C3.92695 9.05267 3.06525 9.91023 3.06525 10.9681C3.06525 12.0259 3.92695 12.8835 4.98991 12.8835Z" fill="#FBCC01"/>
<path d="M11.4016 6.43356C12.4645 6.43356 13.3262 5.57601 13.3262 4.51816C13.3262 3.46031 12.4645 2.60275 11.4016 2.60275C10.3386 2.60275 9.47693 3.46031 9.47693 4.51816C9.47693 5.57601 10.3386 6.43356 11.4016 6.43356Z" fill="#FBCC01"/>
<path d="M20.3785 0.00145609V3.87082C24.6305 3.87082 28.7083 5.56999 31.7149 8.59452C34.7215 11.6191 36.4106 15.7212 36.4106 19.9985C36.4106 24.2759 34.7215 28.378 31.7149 31.4026C28.7083 34.4271 24.6305 36.1263 20.3785 36.1263V39.9985C23.0094 40.0305 25.6204 39.5368 28.0602 38.5462C30.5001 37.5555 32.7201 36.0875 34.5918 34.2273C36.4634 32.3671 37.9494 30.1516 38.9636 27.7094C39.9778 25.2672 40.5001 22.6468 40.5001 20C40.5001 17.3532 39.9778 14.7328 38.9636 12.2906C37.9494 9.84835 36.4634 7.63293 34.5918 5.77272C32.7201 3.91251 30.5001 2.44452 28.0602 1.45384C25.6204 0.463158 23.0094 -0.0305072 20.3785 0.0014588V0.00145609Z" fill="#FBCC01"/>
<path d="M11.4016 37.3973C12.4645 37.3973 13.3262 36.5397 13.3262 35.4819C13.3262 34.424 12.4645 33.5665 11.4016 33.5665C10.3386 33.5665 9.47693 34.424 9.47693 35.4819C9.47693 36.5397 10.3386 37.3973 11.4016 37.3973Z" fill="#FBCC01"/>
</svg>
